<svg width="95" height="94" viewBox="0 0 95 94" fill="none" xmlns="http://www.w3.org/2000/svg">
<g clip-path="url(#clip0_27_16)">
<path d="M29.9045 0H40.0017V4.22217H34.1267V8.44433H40.0017V12.6665H29.9045V0ZM42.0188 0H52.1199V3.67383H46.2449V4.40625H52.1199V12.8506H42.0188V8.99658H47.8938V8.26025H42.0188V0ZM54.1409 0H64.2341V3.67383H58.3591V4.40625H64.2341V12.8506H54.1409V8.99658H60.0159V8.26025H54.1409V0Z" fill="white"/>
<path fill-rule="evenodd" clip-rule="evenodd" d="M47.4865 94L20.2891 86.4487L12.2717 18.4749H82.7717L74.7582 86.4408L47.4865 94ZM28.1225 49.2442L28.8706 57.5789H57.7638L56.7964 68.3889L47.4982 70.9034H47.4904L38.2079 68.3967L37.6126 61.7502H29.2426L30.4098 74.8397L47.4865 79.5788L64.5906 74.8397L66.6742 51.4807L66.8779 49.2442L68.3819 32.3673H26.6224L27.3822 40.7059H59.2482L58.4884 49.2442H28.1225Z" fill="white"/>
</g>
<defs>
<clipPath id="clip0_27_16">
<rect width="94" height="94" fill="white" transform="translate(0.521729)"/>
</clipPath>
</defs>
</svg>
