<svg width="74" height="94" viewBox="0 0 74 94" fill="none" xmlns="http://www.w3.org/2000/svg">
<path d="M33.6575 0H49.0279V71.1462C41.1429 72.6444 35.3539 73.2429 29.0669 73.2429C10.3029 73.2422 0.521729 64.7601 0.521729 48.4908C0.521729 32.8207 10.9021 22.6408 26.9702 22.6408C29.4656 22.6408 31.3618 22.8405 33.6575 23.439V0ZM33.6575 35.8118C31.8612 35.2133 30.3638 35.0143 28.4676 35.0143C20.6833 35.0143 16.1911 39.8046 16.1911 48.1882C16.1911 56.3728 20.4835 60.8635 28.3685 60.8635C30.0642 60.8635 31.4617 60.7637 33.6575 60.4655V35.8118Z" fill="white"/>
<path d="M73.4782 23.7357V59.3669C73.4782 71.6434 72.5793 77.5316 69.8849 82.6216C67.3895 87.5133 64.0958 90.6065 57.3094 94L43.0369 87.2136C49.824 84.0191 53.1169 81.2263 55.2128 76.9324C57.4086 72.5416 58.1084 67.4516 58.1084 54.0772V23.7357H73.4782ZM58.1077 0.0815125H73.4782V15.8515H58.1077V0.0815125Z" fill="white"/>
</svg>
