<svg width="32" height="32" viewBox="0 0 32 32" fill="none" xmlns="http://www.w3.org/2000/svg">
<path d="M16.0001 29.3333C23.3639 29.3333 29.3334 23.3638 29.3334 16C29.3334 8.6362 23.3639 2.66667 16.0001 2.66667C8.63628 2.66667 2.66675 8.6362 2.66675 16C2.66675 23.3638 8.63628 29.3333 16.0001 29.3333Z" stroke="white" stroke-width="2" stroke-linecap="round" stroke-linejoin="round"/>
<path d="M29.3334 17.6853C28.079 17.4508 26.8056 17.333 25.5294 17.3333C18.3934 17.3333 12.0454 20.9893 8.00008 26.6667M25.3334 6.66667C21.1601 11.556 14.8907 14.6667 7.88008 14.6667C6.08541 14.6667 4.34008 14.4627 2.66675 14.0787" stroke="white" stroke-width="2" stroke-linecap="round" stroke-linejoin="round"/>
<path d="M19.4908 29.3333C19.8304 27.6839 20.001 26.0041 20.0002 24.32C20.0002 15.9013 15.7788 8.46267 9.3335 4" stroke="white" stroke-width="2" stroke-linecap="round" stroke-linejoin="round"/>
</svg>
