<svg width="95" height="94" viewBox="0 0 95 94" fill="none" xmlns="http://www.w3.org/2000/svg">
<mask id="mask0_27_20" style="mask-type:luminance" maskUnits="userSpaceOnUse" x="0" y="0" width="95" height="94">
<path d="M0.521729 0H94.5217V94H0.521729V0Z" fill="white"/>
</mask>
<g mask="url(#mask0_27_20)">
<path d="M20.4183 0H24.6562V4.18692H28.5337V0H32.7715V12.6743H28.5337V8.43258H24.6562V12.6743H20.4223L20.4183 0ZM38.341 4.20258H34.6123V0H46.3114V4.20258H42.5788V12.6743H38.341V4.20258ZM48.1679 0H52.5859L55.3041 4.45325L58.0183 0H62.4363V12.6743H58.2181V6.392L55.3041 10.9001H55.2297L52.3118 6.39592V12.6743H48.1679V0ZM64.5435 0H68.7853V8.48742H74.7386V12.6783H64.5435V0Z" fill="white"/>
<path fill-rule="evenodd" clip-rule="evenodd" d="M20.2852 86.4487L12.2717 18.4749H82.7717L74.7543 86.4408L47.4826 94L20.2852 86.4487ZM36.4885 49.2403L35.7286 40.702H67.6299L68.3741 32.3673H26.6224L28.8706 57.5789H57.7638L56.7964 68.3889L47.4982 70.9034H47.4904L38.2079 68.3967L37.6126 61.7502H29.2387L30.4059 74.8397L47.4826 79.5788L64.5866 74.8397L66.6703 51.4807L66.874 49.2442L36.4885 49.2403Z" fill="white"/>
</g>
</svg>
