<svg width="95" height="94" viewBox="0 0 95 94" fill="none" xmlns="http://www.w3.org/2000/svg">
<path d="M0.521729 0V94H94.5217V0H0.521729ZM51.6779 73.3099C51.6779 82.4581 46.3064 86.6344 38.4809 86.6344C31.4108 86.6344 27.3184 82.9852 25.2202 78.5571L32.4179 74.213C33.8044 76.6671 35.0634 78.7451 38.1049 78.7451C40.9988 78.7451 42.8452 77.6104 42.8452 73.1857V43.1594H51.6779V73.3099ZM72.5727 86.6344C64.3679 86.6344 59.0602 82.7334 56.4786 77.6104L63.6763 73.4576C65.5664 76.5429 68.0406 78.8291 72.3847 78.8291C76.0339 78.8291 78.3873 77.0028 78.3873 74.4648C78.3873 71.4434 75.9937 70.3724 71.9449 68.5898L69.7427 67.6464C63.3641 64.9406 59.1475 61.5196 59.1475 54.3219C59.1475 47.6916 64.2034 42.6559 72.0725 42.6559C77.6957 42.6559 81.7243 44.6064 84.6215 49.726L77.7394 54.1339C76.2287 51.4281 74.5904 50.3571 72.0524 50.3571C69.4741 50.3571 67.8358 51.9954 67.8358 54.1339C67.8358 56.7794 69.4741 57.8469 73.271 59.5054L75.4733 60.4487C82.9866 63.6581 87.2032 66.9549 87.2032 74.3372C87.2032 82.2701 80.9488 86.6311 72.5761 86.6311L72.5727 86.6344Z" fill="white"/>
</svg>
