<svg width="85" height="76" viewBox="0 0 85 76" fill="none" xmlns="http://www.w3.org/2000/svg">
<path d="M42.5218 30.5975C46.5559 30.5975 49.8459 33.8875 49.8459 38C49.8459 41.9167 46.5559 45.2458 42.5218 45.2458C38.4876 45.2458 35.1976 41.9167 35.1976 38C35.1976 33.8875 38.4876 30.5975 42.5218 30.5975ZM24.3876 69.3333C26.8551 70.8217 32.2601 68.55 38.4876 62.675C36.4509 60.3642 34.4534 57.8575 32.5734 55.2333C29.4175 54.9291 26.2798 54.4584 23.1734 53.8233C21.1759 62.205 21.9201 67.9625 24.3876 69.3333ZM27.1684 46.8517L26.0326 44.8542C25.6018 45.99 25.1709 47.1258 24.8968 48.2225C25.9543 48.4575 27.1293 48.6533 28.3434 48.8492L27.1684 46.8517ZM52.7834 43.875L55.9559 38L52.7834 32.125C51.6084 30.0492 50.3551 28.2083 49.2193 26.3675C47.1043 26.25 44.8718 26.25 42.5218 26.25C40.1718 26.25 37.9393 26.25 35.8243 26.3675C34.6884 28.2083 33.4351 30.0492 32.2601 32.125L29.0876 38L32.2601 43.875C33.4351 45.9508 34.6884 47.7917 35.8243 49.6325C37.9393 49.75 40.1718 49.75 42.5218 49.75C44.8718 49.75 47.1043 49.75 49.2193 49.6325C50.3551 47.7917 51.6084 45.9508 52.7834 43.875ZM42.5218 17.555C41.7776 18.4167 40.9943 19.3175 40.2109 20.375H44.8326C44.0493 19.3175 43.2659 18.4167 42.5218 17.555ZM42.5218 58.445C43.2659 57.5833 44.0493 56.6825 44.8326 55.625H40.2109C40.9943 56.6825 41.7776 57.5833 42.5218 58.445ZM60.6168 6.66666C58.1884 5.17833 52.7834 7.44999 46.5559 13.325C48.5926 15.6358 50.5901 18.1425 52.4701 20.7667C55.6818 21.08 58.8543 21.55 61.8701 22.1767C63.8676 13.795 63.1234 8.03749 60.6168 6.66666ZM57.8751 29.1483L59.0109 31.1458C59.4418 30.01 59.8726 28.8742 60.1468 27.7775C59.0893 27.5425 57.9143 27.3467 56.7001 27.1508L57.8751 29.1483ZM63.5543 1.53583C69.3118 4.82583 69.9384 13.4817 67.5101 23.5867C77.4584 26.5242 84.6259 31.3808 84.6259 38C84.6259 44.6192 77.4584 49.4758 67.5101 52.4133C69.9384 62.5183 69.3118 71.1742 63.5543 74.4642C57.8359 77.7542 50.0418 73.9942 42.5218 66.8267C35.0018 73.9942 27.2076 77.7542 21.4501 74.4642C15.7318 71.1742 15.1051 62.5183 17.5334 52.4133C7.5851 49.4758 0.417603 44.6192 0.417603 38C0.417603 31.3808 7.5851 26.5242 17.5334 23.5867C15.1051 13.4817 15.7318 4.82583 21.4501 1.53583C27.2076 -1.75417 35.0018 2.00583 42.5218 9.17333C50.0418 2.00583 57.8359 -1.75417 63.5543 1.53583ZM62.4184 38C63.7501 40.9375 64.9251 43.875 65.9043 46.8517C74.1293 44.3842 78.7509 40.8592 78.7509 38C78.7509 35.1408 74.1293 31.6158 65.9043 29.1483C64.9251 32.125 63.7501 35.0625 62.4184 38ZM22.6251 38C21.2934 35.0625 20.1184 32.125 19.1393 29.1483C10.9143 31.6158 6.2926 35.1408 6.2926 38C6.2926 40.8592 10.9143 44.3842 19.1393 46.8517C20.1184 43.875 21.2934 40.9375 22.6251 38ZM57.8751 46.8517L56.7001 48.8492C57.9143 48.6533 59.0893 48.4575 60.1468 48.2225C59.8726 47.1258 59.4418 45.99 59.0109 44.8542L57.8751 46.8517ZM46.5559 62.675C52.7834 68.55 58.1884 70.8217 60.6168 69.3333C63.1234 67.9625 63.8676 62.205 61.8701 53.8233C58.8543 54.45 55.6818 54.92 52.4701 55.2333C50.5901 57.8575 48.5926 60.3642 46.5559 62.675ZM27.1684 29.1483L28.3434 27.1508C27.1293 27.3467 25.9543 27.5425 24.8968 27.7775C25.1709 28.8742 25.6018 30.01 26.0326 31.1458L27.1684 29.1483ZM38.4876 13.325C32.2601 7.44999 26.8551 5.17833 24.3876 6.66666C21.9201 8.03749 21.1759 13.795 23.1734 22.1767C26.2798 21.5416 29.4175 21.0709 32.5734 20.7667C34.4534 18.1425 36.4509 15.6358 38.4876 13.325Z" fill="white"/>
</svg>
