<svg width="95" height="94" viewBox="0 0 95 94" fill="none" xmlns="http://www.w3.org/2000/svg">
<g clip-path="url(#clip0_27_27)">
<mask id="mask0_27_27" style="mask-type:luminance" maskUnits="userSpaceOnUse" x="0" y="0" width="95" height="94">
<path d="M0.521729 0H94.5217V94H0.521729V0Z" fill="white"/>
</mask>
<g mask="url(#mask0_27_27)">
<path d="M65.6559 64.8718C69.1221 64.5114 71.7541 61.4917 71.6366 57.8688C71.578 56.1274 70.8482 54.4762 69.5999 53.2607C68.3515 52.0452 66.6814 51.3597 64.9391 51.3475H64.6963C60.9872 51.465 58.1163 54.6062 58.2338 58.3505C58.3591 60.1639 59.0759 61.7306 60.153 62.8155C56.0836 70.9113 49.8639 76.8254 40.5305 81.7761C34.1933 85.1601 27.6133 86.3664 21.0372 85.5204C15.6518 84.7958 11.4649 82.3793 8.83289 78.396C5.00631 72.4818 4.64989 66.0781 7.87722 59.6783C10.1489 55.0918 13.7405 51.7078 16.0121 50.0198C15.3961 47.992 14.8772 45.9361 14.4572 43.8588C-2.88969 56.541 -1.09194 73.6882 4.16422 81.78C8.11222 87.8195 16.1257 91.5638 24.9813 91.5638C27.3988 91.5782 29.8088 91.294 32.1566 90.7178C47.4708 87.702 59.072 78.5213 65.652 64.8757M86.7041 49.9023C77.6135 39.1549 64.2146 33.2368 48.9043 33.2368H46.9891C46.4426 32.1505 45.6057 31.2369 44.5714 30.5973C43.5371 29.9578 42.3458 29.6174 41.1297 29.6139H40.8869C37.1817 29.7353 34.3069 32.8765 34.4283 36.6208C34.5458 40.2438 37.5381 43.1382 41.1258 43.1382H41.3686C42.6322 43.0733 43.8519 42.6538 44.8882 41.9279C45.9244 41.202 46.7353 40.1989 47.228 39.0335H49.3821C58.4727 39.0335 67.0855 41.689 74.8601 46.8825C80.8408 50.8697 85.1491 56.0593 87.5383 62.3416C89.575 67.4098 89.4575 72.3604 87.3033 76.5904C83.9506 82.9903 78.3302 86.4918 70.9121 86.4918C66.1298 86.4918 61.5826 85.0426 59.1895 83.9538C57.4679 85.4901 55.6719 86.941 53.808 88.3013C58.9506 90.7178 64.2146 92.0456 69.2396 92.0456C80.7233 92.0456 89.2146 85.6458 92.4459 79.2459C95.9121 72.2429 95.6732 60.1678 86.7041 49.9023ZM25.9409 66.9241C26.0584 70.547 29.0507 73.4454 32.6384 73.4454H32.8773C36.5864 73.3279 39.4573 70.1867 39.3398 66.4423C39.2812 64.701 38.5514 63.0498 37.303 61.8343C36.0547 60.6188 34.3846 59.9333 32.6423 59.9211H32.3995C32.1149 59.8987 31.8288 59.9388 31.5613 60.0386C26.6576 51.8293 24.6249 42.8953 25.3416 33.2329C25.8195 25.9871 28.2126 19.7087 32.3995 14.5152C35.8696 10.0502 42.5671 7.87643 47.1144 7.75501C59.7926 7.51218 65.1741 23.453 65.5345 29.8528C67.0894 30.2132 69.7214 31.0592 71.5152 31.6623C70.0778 12.1025 58.1202 1.95834 46.6326 1.95834C35.8696 1.95834 25.9409 9.80734 21.9929 21.4007C16.49 36.8558 20.0776 51.7078 26.7791 63.4226C26.1798 64.2686 25.8195 65.5963 25.9409 66.9241Z" fill="white"/>
</g>
</g>
<defs>
<clipPath id="clip0_27_27">
<rect width="94" height="94" fill="white" transform="translate(0.521729)"/>
</clipPath>
</defs>
</svg>
