<svg width="79" height="50" viewBox="0 0 79 50" fill="none" xmlns="http://www.w3.org/2000/svg">
<path d="M38.6678 0.403331C34.0732 0.340941 29.6165 1.97295 26.1487 4.98775C22.681 8.00254 20.445 12.1889 19.8678 16.7476C20.9803 14.8521 22.5408 13.2585 24.4125 12.1065C26.2842 10.9545 28.41 10.2793 30.6034 10.1402C37.2186 10.1402 42.2516 17.8638 45.3222 20.2726C48.2533 22.5894 51.7165 24.1378 55.3975 24.7772C59.0785 25.4167 62.861 25.1271 66.4017 23.9347C74.2351 21.4358 77.8932 12.7134 78.6883 8.57742C74.8931 13.9785 69.1316 17.2215 62.0072 13.3988C57.0996 10.7629 53.4297 -0.066669 38.6678 0.403331ZM19.155 24.9177C14.5603 24.8527 10.1027 26.4832 6.63446 29.4977C3.16622 32.5122 0.930604 36.6991 0.35498 41.2581C1.46889 39.3605 3.03185 37.7655 4.9065 36.6134C6.78115 35.4613 8.9101 34.7873 11.1062 34.6507C17.7215 34.6507 22.7544 42.3743 25.8251 44.7831C28.7562 47.0999 32.2193 48.6483 35.9003 49.2878C39.5814 49.9272 43.3638 49.6376 46.9046 48.4452C54.7379 45.9463 58.3921 37.2239 59.1911 33.0879C55.392 38.489 49.6345 41.7359 42.5101 37.9093C37.6025 35.2734 33.9326 24.4242 19.155 24.9177Z" fill="white"/>
</svg>
